<!-- Generator: Adobe Illustrator 19.2.1, SVG Export Plug-In  -->
<svg version="1.1"
	 xmlns="http://www.w3.org/2000/svg" xmlns:xlink="http://www.w3.org/1999/xlink" xmlns:a="http://ns.adobe.com/AdobeSVGViewerExtensions/3.0/"
	 x="0px" y="0px" width="218.498px" height="206px" viewBox="0 0 218.498 206" style="enable-background:new 0 0 218.498 206;"
	 xml:space="preserve">
<style type="text/css">
	.st0{fill:#FDFCEC;}
	.st1{fill:#EDE6C4;}
	.st2{fill:#FE6556;}
	.st3{fill:#FEE06B;}
	.st4{fill:#FEE169;}
	.st5{fill:#F6544C;}
	.st6{fill:#73B452;}
	.st7{fill:#43AEC8;}
	.st8{fill:#FEE990;}
	.st9{fill:#E1DBBC;}
	.st10{fill:#3AA6B6;}
	.st11{fill:#FCFCFC;}
</style>
<defs>
</defs>
<g>
	<g>
		<path class="st0" d="M102.485,115.663c-2.411-5.001-3.895-11.672-6.786-17.668c-2.628,5.547-4.912,11.595-6.942,15.878
			c2.642,1.212-15.016-6.892-17.143-7.82c-13.937-6.085-15.127-8.244-28.609-15.282c3.162-3.89,3.785-7.441,6.947-11.331
			c-0.268-0.278,0.849-0.825,0.581-1.103c2.033-0.985,6.327-2.654,8.932-3.916c7.329,10.902,30.708,12.417,31.228,12.42
			c1.479,2.765,4.877,10.882,4.877,10.882c7.521-16.517,14.529-31.905,21.536-47.294c2.181,2.542,3.302,5.402,5.001,8.206
			c11.429,18.863,3.006,41.722-12.708,52.532C108.103,112.059,104.119,115.24,102.485,115.663z"/>
	</g>
	<path class="st1" d="M142.468,82.517C177.496,168.295,100.367,206,99.208,206c-6.565-23.672-13.13-47.344-20.077-72.395
		c-15.574,12.39-30.018,23.881-44.832,35.667c-11.492-9.424-21.898-17.956-33.171-27.201c5.31-7.871,10.499-15.374,15.488-23.007
		c5.639-8.629,11.099-17.376,16.637-26.072c1.506-0.121,3.012-0.242,4.518-0.363c0.795,0.783,1.753,1.489,2.345,2.369
		c9.397,13.952,21.911,26.07,41.163,26.042c0.665-0.001,1.331,0.837,2.363,1.53c-1.034,2.736-2.006,5.309-2.979,7.882
		c0.587,0.385,0.47,0.226,1.057,0.611l10.548-10.307c1.23-0.943,2.46-1.886,3.69-2.829c2.321-0.84,4.642-1.679,6.963-2.519
		c4.444,8.223,8.888,16.447,13.423,24.838c1.868-0.365,3.454-0.273,4.567-0.954c11.557-7.068,18.285-17.393,21.931-30.454
		C145.047,100.942,142.06,90.115,142.468,82.517z"/>
	<path class="st2" d="M218.498,51.215c-3.394,5.604-7.215,13.572-11.419,18.482c-5.728,6.691-11.877,13.451-19.092,18.341
		c-11.955,8.103-24.706,5.552-36.851-0.731c-3.055-1.58-6.118-3.379-9.029-5.237c-5.792-7.171-11.311-14.638-17.103-21.809
		l0.108-0.115c-0.488-0.696-2.416-1.393-2.904-2.089c-2.181-2.542-2.922-5.085-5.103-7.627c-1.61-2.575-5.287-3.81-7.467-5.741
		C97.313,33.771,81.944,29.703,69.491,32.27l-1.044-2.078c11.824-5.976,26.541-13.185,37.69-18.648
		c16.523,9.132,32.04,18.671,48.402,26.433c12.129,5.754,25.12,10.168,38.177,13.305c7.785,1.871,16.439,0.122,24.703,0.001
		L218.498,51.215z"/>
	<path class="st3" d="M1.879,0.572C14.37,8.262,26.926,15.851,39.328,23.684c6.749,4.263,13.465,8.94,20.07,13.43
		c-4.333,3.487-8.689,6.945-12.988,10.472c-2.069,1.698-4.259,3.872-6.269,5.643c-1.739-2.256-3.478-4.857-5.217-7.113
		C25.672,34.22,16.403,22.335,7.181,10.416C5.27,7.946,3.528,5.345,1.709,2.805C1.766,2.061,1.822,1.316,1.879,0.572z"/>
	<path class="st2" d="M34.924,46.117c1.739,2.256,3.6,4.672,5.339,6.928c-0.837,4.007-1.946,7.834-2.542,11.876
		c-0.184,1.25,0.697,2.657,1.09,3.992c-1.491,0.959-2.982,1.918-4.473,2.877c-2.839,0.525-5.658,1.224-8.52,1.542
		C16.948,74.318,10.4,70.898,4.25,61.668C14.538,56.452,24.731,51.284,34.924,46.117z"/>
	<path class="st4" d="M87.033,79.463c-6.138,2.781-12.123,3.357-16.658-1.744C65.4,72.123,65.59,65.19,69.776,58.986
		c3-1.421,6.98-3.308,9.981-4.729c8.842,0,12.071,2.896,14.267,9.495C96.278,70.524,93.614,75.78,87.033,79.463z"/>
	<path class="st5" d="M34.567,71.79c-0.001-1.16-0.816-9.079,5.696-18.746c2.01-1.77,4.077-3.759,6.146-5.457
		c4.299-3.528,8.655-6.986,12.988-10.472c2.141,4.704,4.281,9.407,6.422,14.111c-1.043,1.01-1.036,2.704-2.079,3.714
		c-0.532,0.754-2.113,0.825-2.645,1.579l0.072-0.14c-2.661,1.528-5.314,3.072-7.986,4.582C48.473,63.622,39.282,69.14,34.567,71.79z
		"/>
	<path class="st6" d="M69.491,32.27c16.229-4.588,34.873,1.688,47.615,18.16c-7.008,15.389-14.015,30.777-21.536,47.294
		c-2.271-4.246-4.877-10.882-4.877-10.882c0-0.252,10.53-8.5,11.573-16.676c1.537-12.056-9.354-27.663-26.078-23.955
		C73.956,41.564,71.723,36.917,69.491,32.27z"/>
	<path class="st7" d="M87.191,79.208c5.301-3.303,8.431-9.172,6.297-15.946c-1.142-3.628-5.31-8.81-13.732-9.006
		c-0.996-2.725-3.475-7.796-3.568-8.046c16.723-3.708,26.336,10.559,26.84,22.703c0.437,10.528-12.335,17.929-12.335,17.929
		L87.191,79.208z"/>
	<path class="st0" d="M38.811,68.913c4.714-2.65,9.434-5.291,14.142-7.953c2.672-1.51,6.174-3.563,8.836-5.092
		c-0.99,4.124-2.772,9.714-4.001,14.836c-6.594,3.048-15.572,6.95-22.9,9.546c-0.809-2.55-0.373-8.353-0.352-8.587
		C36.025,70.705,37.32,69.872,38.811,68.913z"/>
	<path class="st7" d="M36.764,79.441c0.045,0.265,1.603,11.79,1.603,11.79c-0.183,0.473-0.381,0.939-0.596,1.398
		c0,0-2.768,0.222-4.279,0.343c-0.021,0.002-5.527,0.329-5.538,0.312c0,0,0.097-9.836,0-10.111L36.764,79.441z"/>
	<path class="st8" d="M1.879,0.572c-0.057,0.744-0.113,1.489-0.17,2.233C1.217,2,0.492,0.805,0,0L1.879,0.572z"/>
	<path class="st4" d="M117.106,50.43c5.792,7.171,19.569,24.916,25.362,32.087c0.126,1.402,2.579,18.425,0.374,26.323
		c-3.646,13.061-10.375,23.386-21.931,30.454c-1.113,0.681-4.159,2.465-4.159,2.465c-4.535-8.392-9.387-18.127-13.831-26.35
		c0,0,3.283-2.302,4.56-3.221c14.737-10.613,22.899-30.334,17.742-45.961C122.702,58.59,117.106,50.43,117.106,50.43z"/>
	<path class="st9" d="M38.547,91.231c1.546-0.153,3.093-0.306,4.639-0.459c13.482,7.038,26.917,14.375,40.857,20.456
		c0.887,0.387,4.716,2.647,4.716,2.647c-1.157,1.923-2.135,3.847-3.961,6.883c3.743,0,9.13-2.096,11.085-2.096
		c-3.281,3.617-16.657,15.013-16.571,14.944c0.972-2.573,1.74-12.128,1.075-12.127c-19.252,0.027-34.586-12.082-43.241-28.799
		C37.145,92.679,38.364,91.703,38.547,91.231z"/>
	<path class="st2" d="M88.758,113.874c0,0,6.734-15.986,6.812-16.15c2.891,5.996,5.024,12.719,7.435,17.72
		c0,0-4.802,2.377-7.123,3.217C93.482,117.309,91.158,115.225,88.758,113.874z"/>
	<path class="st3" d="M88.758,113.874c2.4,1.351,4.723,3.435,7.123,4.787c-1.23,0.943-11.753,2.817-15.496,2.817
		C80.386,121.478,87.601,115.797,88.758,113.874z"/>
	<path class="st4" d="M125.114,60.146c-0.488-0.696-0.977-1.393-1.465-2.089C124.137,58.754,124.625,59.45,125.114,60.146z"/>
	<path class="st0" d="M60.866,56.518c-0.1,0.141,0.716-1.015,1.595-2.262C62.993,53.502,61.398,55.764,60.866,56.518z"/>
	<path class="st10" d="M65.819,51.225c1.528,2.474,2.657,5.286,4.185,7.76c-3.777,5.905-4.315,12.242,0.12,17.654
		c3.537,4.316,10.171,5.878,17.295,2.569l3.502,7.633c-16.062,7.242-27.331-1.95-31.524-12.021c-2.605,1.262-6.634,2.875-8.667,3.86
		L49.5,86.246l-6.265,4.526l-6.041,1.908l-2.308-12.428c7.185-3.322,16.356-7.966,22.949-11.015
		c-0.599-7.283,3.331-12.858,3.331-12.858l-0.072,0.14C61.627,55.764,64.776,52.236,65.819,51.225z"/>
	<polygon class="st11" points="69.776,58.986 80.206,54.256 66.639,26.026 56.008,31.861 	"/>
</g>
</svg>